<?xml version="1.0" encoding="iso-8859-1"?>
<!-- Generator: Adobe Illustrator 19.0.0, SVG Export Plug-In . SVG Version: 6.00 Build 0)  -->
<svg version="1.1" id="Layer_1" xmlns="http://www.w3.org/2000/svg" xmlns:xlink="http://www.w3.org/1999/xlink" x="0px" y="0px"
	 viewBox="0 0 503.5 503.5" style="enable-background:new 0 0 503.5 503.5;" xml:space="preserve">
<polygon style="fill:#FFFFFF;" points="55.4,499.3 106.6,499.3 106.6,204.9 55.4,204.9 "/>
<g transform="translate(1 1)">
	<path style="fill:#ECF4F7;" d="M498.2,156.9v136.5h-34.1h-51.2V3.3C412.8,3.3,498.2,37.5,498.2,156.9z M336,139.9V157
		c0,20.5-10.2,36.7-26.5,45.2c-5.1,2.6-10.2,4.3-16.2,5.1c0,0-6,0.9-8.5,0.9s-15.4-0.9-25.6-5.1v-0.9l0,0
		c-15.4-8.5-25.6-24.7-25.6-45.2v-17.1h34.1h34.1H336z M55.3,203.9h-0.9l0,0c-15.4-5.1-28.2-15.4-36.7-27.3
		c-9.3-12.8-14.5-28.2-14.5-45.3V97.2C3.2,46,37.3,3.3,80,3.3s76.8,42.7,76.8,93.9v34.1c0,33.3-21.3,62.3-51.2,72.5
		c-6,1.7-11.9,3.4-17.9,4.3H80C80,208.1,67.2,208.1,55.3,203.9z"/>
	<path style="fill:#FFD0A1;" d="M464,293.5v187.7c0,10.2-7.7,17.1-17.1,17.1h-17.1c-9.4,0-17.1-7.7-17.1-17.1V293.5H464z M310.4,203
		v278.2c0,10.2-7.7,17.1-17.1,17.1h-17.1c-9.4,0-17.1-7.7-17.1-17.1V203c10.2,5.1,23,5.1,25.6,5.1s8.5-0.9,8.5-0.9
		c6-0.9,11.9-2.6,16.2-5.1L310.4,203z M87.7,208.1c6-0.9,11.9-1.7,17.9-4.3v0.9v276.5c0,11.1-7.7,17.1-17.1,17.1h-17
		c-9.4,0-17.1-6.8-17.1-17.1V203.9h0.9c11.9,4.3,24.7,4.3,24.7,4.3h7.7V208.1z"/>
</g>
<path style="fill:#51565F;" d="M448,503.5h-17.1c-11.9,0-21.3-9.4-21.3-21.3V4.3c0-1.7,0.9-2.6,1.7-3.4c0.9-0.9,2.6-0.9,4.3-0.9
	c0.9,0,87.9,36.7,87.9,157.9v136.5c0,2.6-1.7,4.3-4.3,4.3H448c-2.6,0-4.3-1.7-4.3-4.3c0-2.6,1.7-4.3,4.3-4.3h46.9V157.9
	c0-98.1-58-136.5-76.8-146.8v471c0,6.8,6,12.8,12.8,12.8H448c7.7,0,12.8-5.1,12.8-12.8V328.6c0-2.6,1.7-4.3,4.3-4.3s4.3,1.7,4.3,4.3
	v153.6C469.3,494.1,459.9,503.5,448,503.5z M294.4,503.5h-17.1c-11.9,0-21.3-9.4-21.3-21.3V205.7c-16.2-9.4-25.6-26.5-25.6-47.8V4.3
	c0-2.6,1.7-4.3,4.3-4.3s4.3,1.7,4.3,4.3v153.6c0,18.8,8.5,33.3,23,41c1.7,0.9,2.6,2.6,2.6,4.3v279c0,6.8,6,12.8,12.8,12.8h17.1
	c7.7,0,12.8-5.1,12.8-12.8V239c0-2.6,1.7-4.3,4.3-4.3s4.3,1.7,4.3,4.3v243.2C315.7,494.1,306.3,503.5,294.4,503.5z M89.6,503.5H72.5
	c-11.9,0-21.3-9.4-21.3-21.3V207.4C20.5,195.5,0,165.6,0,132.3V98.2C0,44.4,36.7,0.1,81,0.1s81.1,44.4,81.1,98.1v34.1
	c0,41.8-31.6,76.8-72.5,81.1c-2.6,0-4.3-1.7-4.3-3.4c0-2.6,1.7-4.3,3.4-4.3c37.5-3.4,64.9-35,64.9-72.5V99.1
	c0-49.5-32.4-89.6-72.5-89.6S8.6,49.6,8.6,99.1v34.1c0,30.7,19.6,58,47.8,68.3c1.7,0.9,3.4,2.6,3.4,4.3v276.5
	c0,7.7,5.1,12.8,12.8,12.8h17.1c7.7,0,12.8-5.1,12.8-12.8V239c0-2.6,1.7-4.3,4.3-4.3s4.3,1.7,4.3,4.3v243.2
	C110.9,495,102.4,503.5,89.6,503.5z M294.4,212.5c-1.7,0-4.3-1.7-4.3-3.4c0-2.6,1.7-4.3,3.4-5.1c23.9-3.4,39.3-21.3,39.3-46.1V4.3
	c0-2.6,1.7-4.3,4.3-4.3s4.3,1.7,4.3,4.3v153.6C341.3,186.9,322.5,209.1,294.4,212.5C295.2,212.5,294.4,212.5,294.4,212.5z
	 M302.9,145.1c-2.6,0-4.3-1.7-4.3-4.3V4.3c0-2.6,1.7-4.3,4.3-4.3s4.3,1.7,4.3,4.3v136.5C307.2,143.4,305.5,145.1,302.9,145.1z
	 M268.8,145.1c-2.6,0-4.3-1.7-4.3-4.3V4.3c0-2.6,1.7-4.3,4.3-4.3s4.3,1.7,4.3,4.3v136.5C273,143.4,271.3,145.1,268.8,145.1z"/>
<g>
</g>
<g>
</g>
<g>
</g>
<g>
</g>
<g>
</g>
<g>
</g>
<g>
</g>
<g>
</g>
<g>
</g>
<g>
</g>
<g>
</g>
<g>
</g>
<g>
</g>
<g>
</g>
<g>
</g>
</svg>
